<svg class="svg-symbols" style="position: absolute; clip: rect(0, 0, 0, 0);" xmlns="http://www.w3.org/2000/svg" xmlns:xlink="http://www.w3.org/1999/xlink">
<defs>
<path id="empire-logo-blue.svg-a" d="M231.2 5453.24c-.65 0-1.09.13-1.09.13v1.11h.15c.35.01.5.1.5.46v4.47h1.77v-4.86c0-.9-.43-1.3-1.34-1.3zm-.6-1.8c0 .47.28.91.94.91.67 0 .95-.44.95-.92 0-.48-.27-.9-.95-.9-.67 0-.94.42-.94.9zm15.14.35l-1.74.2v1.38h-.8v1.35h.8v2.62c0 1.46.64 2.19 2.03 2.19.61 0 1-.13 1-.13v-1.27s-.21.04-.46.04c-.59 0-.83-.27-.83-.86v-2.6h1.31v-1.34h-1.31zm5.44 5.94s-.35.5-1.1.5c-.43 0-.72-.23-.72-.65 0-.5.33-.77 1.19-.8l.63-.02zm2.28.58c-.35 0-.54-.1-.54-.47v-2.34c0-1.56-.81-2.26-2.76-2.26-1.14 0-2.02.32-2.02.32v1.27s.88-.28 1.8-.28c.95 0 1.24.35 1.24 1.06v.14l-1.07.02c-1.53.03-2.47.73-2.47 1.94 0 1.13.75 1.83 1.96 1.83 1.04 0 1.61-.63 1.85-.94.14.67.5.94 1.26.94.51 0 .87-.13.87-.13v-1.1zm3.3-.09c-.4 0-.55-.16-.55-.71v-5.92c0-.84-.44-1.24-1.35-1.24-.6 0-1.03.14-1.03.14v1.1h.17c.3.02.45.12.45.46v5.73c0 1.13.49 1.75 1.56 1.75.57 0 .9-.13.9-.13v-1.18zm-15.8-4.98c-.65 0-1.08.13-1.08.13v1.11h.14c.35.01.5.1.5.46v4.47h1.77v-4.86c0-.9-.43-1.3-1.34-1.3zm-4.76 3.1c-.58 0-.97-.4-.97-1.03 0-.6.34-1.02.97-1.02.59 0 .95.4.95 1.02s-.4 1.02-.95 1.02zm.16 3.1c.83.04 1.34.16 1.34.71 0 .5-.56.83-1.34.83-.97 0-1.41-.37-1.41-.89a.8.8 0 0 1 .43-.73c.3.04.65.05.98.08zm3-5.03v-1.1l-1.85.17c-.37-.15-.8-.24-1.3-.24-1.68 0-2.58.97-2.58 2.08 0 .75.38 1.37 1.05 1.72-.39.19-.76.57-.76 1.09 0 .44.2.75.51.95-.47.2-.93.64-.93 1.3 0 .96.85 1.73 2.76 1.73 1.68 0 3.01-.84 3.01-2.2 0-1-.63-1.4-1.44-1.62a6.18 6.18 0 0 0-1.37-.2c-.66-.03-1.05-.12-1.05-.43 0-.15.1-.26.21-.35.2.04.4.06.6.06 1.51 0 2.55-.87 2.55-2.04 0-.31-.07-.64-.24-.92zm1-2.97c0 .47.28.91.94.91.67 0 .96-.44.96-.92 0-.48-.28-.9-.96-.9-.67 0-.94.42-.94.9zm-15.02 6.37h-.76v-5.19h.76c1.37 0 2.2.9 2.2 2.6 0 1.7-.83 2.6-2.2 2.6zm-.08-6.77h-2.45v8.36h2.45c2.76 0 4.12-1.72 4.12-4.18 0-2.47-1.36-4.18-4.12-4.18zm-29.69 2.2c-1.16 0-1.73.9-1.73.9-.3-.56-.85-.9-1.71-.9-.81 0-1.42.41-1.73.94-.1-.65-.49-.94-1.24-.94-.54 0-.9.13-.9.13v1.11h.16c.33.01.5.1.5.46v4.47h1.74v-4.23s.35-.45.93-.45c.63 0 .82.42.82 1v3.68h1.74v-3.64c0-.18-.01-.35-.04-.52 0 0 .3-.52.96-.52.62 0 .82.42.82 1v3.68h1.75v-3.9c0-1.34-.67-2.27-2.07-2.27zm-13.15 6.16h5.07v-1.55h-3.3v-1.94h2.7v-1.5h-2.7v-1.82h3.3v-1.55h-5.07zm24.32-6.16c-.64 0-1.08.13-1.08.13v1.11h.15c.35.01.5.1.5.46v4.47h1.76v-4.86c0-.9-.43-1.3-1.33-1.3zm1.3-1.81c0-.48-.27-.9-.95-.9-.67 0-.94.42-.94.9 0 .48.28.92.94.92.67 0 .95-.44.95-.92zm3.13 2.75c-.15-.74-.6-.94-1.26-.94-.54 0-.89.13-.89.13v1.11h.1c.38 0 .55.1.55.46v4.47h1.75v-4.14c.19-.27.59-.53 1.16-.53.4 0 .68.1.68.1v-1.47s-.17-.13-.6-.13a1.8 1.8 0 0 0-1.49.94zm-9.23 3.98c-.56 0-.86-.26-1-.34v-2.58s.3-.54 1.02-.54c.85 0 1.2.65 1.2 1.67 0 1.13-.46 1.8-1.22 1.8zm.54-4.92c-1.06 0-1.65.66-1.8.94-.1-.65-.5-.94-1.25-.94-.54 0-.89.13-.89.13v1.11h.1c.37 0 .55.08.55.46v7.07h1.75v-2.96c.31.25.77.48 1.44.48 1.78 0 2.58-1.48 2.58-3.24 0-1.66-.65-3.05-2.48-3.05zm12.96 2.57c.08-.9.46-1.32 1.12-1.32.65 0 1 .45.99 1.32zm3.71.11c0-1.3-.63-2.68-2.58-2.68-1.8 0-2.88 1.23-2.88 3.23 0 1.87 1.12 3.07 3.17 3.07 1.25 0 2.02-.36 2.02-.36v-1.23s-.78.3-1.68.3c-1.08 0-1.68-.46-1.77-1.4h3.68s.04-.27.04-.93zm-55.8 3.72l1.44-.58-.9-2.12h2.48v2.12h1.55v-2.12h2.47l-.89 2.12 1.43.58.9-2.1 1.87 1.86v-8.38l-4.09 4.07-2.46-5.84-2.47 5.84-4.09-4.07v8.38l1.88-1.87z"/><path id="empire-logo-blue.svg-b" d="M177.24 5444.09a10.09 10.09 0 0 1-10.1 0 10.09 10.09 0 0 1-10.1 0v14.95c0 6.75 10.1 10.28 10.1 10.28s10.1-3.53 10.1-10.28zm-10.1 1.99a11.93 11.93 0 0 0 8.33.66v12.3c0 2.16-1.42 4.24-4.22 6.17a22.9 22.9 0 0 1-4.1 2.2 22.9 22.9 0 0 1-4.11-2.2c-2.8-1.93-4.23-4.01-4.23-6.18v-12.29a11.93 11.93 0 0 0 8.33-.66z"/>
<path id="zoom.svg-a" d="M898.54 988.97a8.45 8.45 0 1 1 0-16.9 8.45 8.45 0 0 1 0 16.9zm14.15 4.25l-6-6a10.54 10.54 0 1 0-1.47 1.47l6 6a1.04 1.04 0 0 0 1.47-1.47z"/>
<path id="angle-right.svg-a" d="M676.85 2313.6l-8.93-9.43a.51.51 0 0 0-.76 0 .59.59 0 0 0 0 .8l8.55 9.03-8.55 9.03a.59.59 0 0 0 0 .8c.1.11.24.17.37.17a.5.5 0 0 0 .38-.17l8.93-9.43a.59.59 0 0 0 0-.8z"/>
<path id="arr-right.svg-a" d="M91.55 2219.39h10.27l-2.45-2.45a.55.55 0 1 1 .78-.78l3.39 3.4c.21.2.21.55 0 .77l-3.4 3.39a.55.55 0 0 1-.77 0 .55.55 0 0 1 0-.78l2.45-2.45H91.55a.55.55 0 0 1 0-1.1z"/>
<path id="close.svg-a" d="M958 188.91l-1.91-1.91-7.59 7.59-7.59-7.59-1.91 1.91 7.59 7.59-7.59 7.59 1.91 1.91 7.59-7.59 7.59 7.59 1.91-1.91-7.59-7.59z"/>
<path id="f.svg-a" d="M1169.5 25c-6.9 0-12.5 5.62-12.5 12.55 0 6.22 4.5 11.37 10.42 12.37v-9.75h-3.02v-3.5h3.02v-2.6c0-3 1.82-4.63 4.49-4.63 1.27 0 2.37.1 2.69.14v3.14h-1.85c-1.45 0-1.73.69-1.73 1.7v2.24h3.46l-.45 3.5h-3V50A12.53 12.53 0 0 0 1182 37.55c0-6.93-5.6-12.55-12.5-12.55z"/>
<path id="fb.svg-a" d="M693.67 2192h-2.41c-2.7 0-4.46 1.8-4.46 4.57v2.11h-2.42a.38.38 0 0 0-.38.38v3.06c0 .2.17.37.38.37h2.42v7.71c0 .21.17.38.38.38h3.16c.21 0 .38-.17.38-.38v-7.7h2.83c.21 0 .38-.18.38-.38v-3.06a.38.38 0 0 0-.38-.38h-2.83v-1.79c0-.86.2-1.3 1.32-1.3h1.63c.2 0 .38-.16.38-.37v-2.84c0-.2-.17-.38-.38-.38z"/>
<path id="inst.svg-a" d="M1133.45 34.43c-.5 0-.91-.41-.91-.91a.91.91 0 0 1 1.83 0c0 .5-.41.9-.92.9zm-3.98 6.93a3.87 3.87 0 1 1 0-7.73 3.87 3.87 0 0 1 0 7.73zm3.71-9.73h-7.43c-1.19 0-2.15.96-2.15 2.15v7.43c0 1.19.96 2.15 2.15 2.15h7.43c1.19 0 2.15-.96 2.15-2.15v-7.43c0-1.19-.96-2.15-2.15-2.15z"/><path id="inst.svg-b" d="M1129.47 35.27a2.23 2.23 0 1 0 0 4.47 2.23 2.23 0 0 0 0-4.47z"/><path id="inst.svg-c" d="M1136.97 41.22c0 2.08-1.7 3.78-3.79 3.78h-7.43a3.79 3.79 0 0 1-3.78-3.78v-7.44c0-2.08 1.7-3.78 3.78-3.78h7.43c2.09 0 3.79 1.7 3.79 3.78zm-7.5-16.22a12.47 12.47 0 1 0 0 24.93 12.47 12.47 0 0 0 0-24.93z"/>
<path id="mail-logo.svg-a" d="M1222 37.5a12.5 12.5 0 1 1-25 0 12.5 12.5 0 0 1 25 0zm-4.15-4.64l-5.16 5.14 5.16 5.13c.1-.2.15-.4.15-.64v-9c0-.22-.06-.44-.15-.63zm-1.33-.86h-14.03c-.23 0-.44.06-.64.15l6.6 6.58a1.5 1.5 0 0 0 2.11 0l6.6-6.58c-.2-.1-.41-.15-.64-.15zm-15.37.86c-.1.2-.15.4-.15.64v9c0 .22.06.44.15.63l5.16-5.13zM1212 38.7l-.73.73c-.97.97-2.56.97-3.53 0l-.73-.73-5.16 5.14c.2.1.41.15.64.15h14.03c.23 0 .44-.06.64-.15z"/>
<path id="tw.svg-a" d="M725 2196.54c-.55.26-1.14.44-1.77.52a3.27 3.27 0 0 0 1.36-1.82c-.6.38-1.26.65-1.96.8a2.98 2.98 0 0 0-2.25-1.04c-1.7 0-3.07 1.47-3.07 3.28 0 .26.02.51.08.75a8.57 8.57 0 0 1-6.34-3.43 3.43 3.43 0 0 0 .95 4.38c-.5-.02-.98-.16-1.4-.41v.04a3.24 3.24 0 0 0 2.47 3.22 2.93 2.93 0 0 1-1.39.05 3.11 3.11 0 0 0 2.88 2.28 5.93 5.93 0 0 1-4.56 1.36 8.3 8.3 0 0 0 4.72 1.48c5.66 0 8.75-5 8.75-9.34v-.43a6.39 6.39 0 0 0 1.53-1.7z"/>
<path id="vk.svg-a" d="M1078.84 59.32a11.38 11.38 0 0 0-2.26-2.67l-.02-.03-.02-.02h-.01c-.49-.47-.8-.78-.93-.94-.23-.3-.29-.61-.16-.92.1-.24.44-.74 1.03-1.5l.74-.97c1.32-1.76 1.9-2.88 1.72-3.37l-.07-.1c-.04-.08-.16-.14-.35-.2a1.8 1.8 0 0 0-.74-.03l-3.29.03a.43.43 0 0 0-.23 0l-.15.04-.05.03-.05.03a.5.5 0 0 0-.12.12.78.78 0 0 0-.12.2 18.67 18.67 0 0 1-2 3.8 5.91 5.91 0 0 1-1.03 1.16c-.13.1-.23.14-.3.13a8.38 8.38 0 0 1-.19-.05.76.76 0 0 1-.26-.28c-.06-.12-.1-.27-.13-.44a4.92 4.92 0 0 1-.03-1.02v-.48a28.39 28.39 0 0 1 .05-1.75l.02-.62c0-.23-.02-.4-.04-.53a1.78 1.78 0 0 0-.12-.36.62.62 0 0 0-.24-.28c-.1-.06-.23-.11-.38-.15a7.6 7.6 0 0 0-1.55-.15c-1.41-.01-2.32.08-2.73.28-.16.08-.3.2-.43.34-.14.17-.16.26-.06.27.46.07.78.24.97.5l.07.13a5.3 5.3 0 0 1 .26 1.36 8.9 8.9 0 0 1-.26 2.9c-.07.13-.11.22-.14.25a.2.2 0 0 1-.05.05c-.1.04-.2.06-.31.06-.1 0-.24-.05-.4-.16-.14-.1-.3-.25-.47-.44a5.88 5.88 0 0 1-.55-.78c-.2-.34-.42-.73-.64-1.2l-.18-.32a28.52 28.52 0 0 1-1-2.12.75.75 0 0 0-.27-.36l-.06-.04a1.21 1.21 0 0 0-.45-.17l-3.13.02c-.32 0-.54.08-.65.22l-.05.07a.37.37 0 0 0-.03.18c0 .09.02.19.07.31a37.73 37.73 0 0 0 4.1 7.25 25.3 25.3 0 0 0 1.14 1.38l.28.28a13.75 13.75 0 0 0 1.98 1.41 6.39 6.39 0 0 0 3.18.8h1.31c.27-.03.47-.11.6-.26l.05-.06a1.16 1.16 0 0 0 .13-.53c0-.32.02-.61.07-.88.06-.26.13-.46.2-.6a1.46 1.46 0 0 1 .44-.5.74.74 0 0 1 .09-.03c.18-.07.4 0 .65.17.24.18.48.4.7.67.21.26.47.55.78.88.3.33.57.57.8.73l.23.14c.15.1.35.18.6.25.23.08.45.1.63.06l2.93-.05c.29 0 .51-.04.67-.14.16-.1.26-.2.29-.31a.89.89 0 0 0 0-.4 1.44 1.44 0 0 0-.08-.3z"/>
<path id="link-arrow.svg-a" d="M456.91 810.4c-.05.13-.12.25-.23.36l-7.95 7.95a1.02 1.02 0 1 1-1.45-1.45l6.27-6.26H439a1 1 0 0 1 0-2h14.56l-6.28-6.27a1.02 1.02 0 1 1 1.45-1.45l7.95 7.95c.1.1.18.23.23.36a.99.99 0 0 1 0 .81z"/>
<path id="vk.svg-a" d="M1078.84 59.32a11.38 11.38 0 0 0-2.26-2.67l-.02-.03-.02-.02h-.01c-.49-.47-.8-.78-.93-.94-.23-.3-.29-.61-.16-.92.1-.24.44-.74 1.03-1.5l.74-.97c1.32-1.76 1.9-2.88 1.72-3.37l-.07-.1c-.04-.08-.16-.14-.35-.2a1.8 1.8 0 0 0-.74-.03l-3.29.03a.43.43 0 0 0-.23 0l-.15.04-.05.03-.05.03a.5.5 0 0 0-.12.12.78.78 0 0 0-.12.2 18.67 18.67 0 0 1-2 3.8 5.91 5.91 0 0 1-1.03 1.16c-.13.1-.23.14-.3.13a8.38 8.38 0 0 1-.19-.05.76.76 0 0 1-.26-.28c-.06-.12-.1-.27-.13-.44a4.92 4.92 0 0 1-.03-1.02v-.48a28.39 28.39 0 0 1 .05-1.75l.02-.62c0-.23-.02-.4-.04-.53a1.78 1.78 0 0 0-.12-.36.62.62 0 0 0-.24-.28c-.1-.06-.23-.11-.38-.15a7.6 7.6 0 0 0-1.55-.15c-1.41-.01-2.32.08-2.73.28-.16.08-.3.2-.43.34-.14.17-.16.26-.06.27.46.07.78.24.97.5l.07.13a5.3 5.3 0 0 1 .26 1.36 8.9 8.9 0 0 1-.26 2.9c-.07.13-.11.22-.14.25a.2.2 0 0 1-.05.05c-.1.04-.2.06-.31.06-.1 0-.24-.05-.4-.16-.14-.1-.3-.25-.47-.44a5.88 5.88 0 0 1-.55-.78c-.2-.34-.42-.73-.64-1.2l-.18-.32a28.52 28.52 0 0 1-1-2.12.75.75 0 0 0-.27-.36l-.06-.04a1.21 1.21 0 0 0-.45-.17l-3.13.02c-.32 0-.54.08-.65.22l-.05.07a.37.37 0 0 0-.03.18c0 .09.02.19.07.31a37.73 37.73 0 0 0 4.1 7.25 25.3 25.3 0 0 0 1.14 1.38l.28.28a13.75 13.75 0 0 0 1.98 1.41 6.39 6.39 0 0 0 3.18.8h1.31c.27-.03.47-.11.6-.26l.05-.06a1.16 1.16 0 0 0 .13-.53c0-.32.02-.61.07-.88.06-.26.13-.46.2-.6a1.46 1.46 0 0 1 .44-.5.74.74 0 0 1 .09-.03c.18-.07.4 0 .65.17.24.18.48.4.7.67.21.26.47.55.78.88.3.33.57.57.8.73l.23.14c.15.1.35.18.6.25.23.08.45.1.63.06l2.93-.05c.29 0 .51-.04.67-.14.16-.1.26-.2.29-.31a.89.89 0 0 0 0-.4 1.44 1.44 0 0 0-.08-.3z"/>
</defs>
<symbol id="icon-svg-empire-logo-blue" viewBox="0 0 100 26"><use fill="#003556" xlink:href="#empire-logo-blue.svg-a" transform="translate(-157 -5444)"/><use fill="#fc5252" xlink:href="#empire-logo-blue.svg-b" transform="translate(-157 -5444)"/></symbol>
<symbol id="icon-svg-zoom" viewBox="0 0 25 25"><use fill="#fcfcfc" xlink:href="#zoom.svg-a" transform="translate(-888 -970)"/></symbol>
<symbol id="icon-svg-angle-right" viewBox="0 0 10 20"><use xlink:href="#angle-right.svg-a" transform="translate(-667 -2304)"/></symbol>
<symbol id="icon-svg-arr-right" viewBox="0 0 13 8"><use xlink:href="#arr-right.svg-a" transform="translate(-91 -2216)"/></symbol>
<symbol id="icon-svg-close" viewBox="0 0 19 19"><use xlink:href="#close.svg-a" transform="translate(-939 -187)"/></symbol>
<symbol id="icon-svg-f" viewBox="0 0 25 25"><use xlink:href="#f.svg-a" transform="translate(-1157 -25)"/></symbol>
<symbol id="icon-svg-fb" viewBox="0 0 10 19"><use xlink:href="#fb.svg-a" transform="translate(-684 -2192)"/></symbol>
<symbol id="icon-svg-inst" viewBox="0 0 25 25"><use xlink:href="#inst.svg-a" transform="translate(-1117 -25)"/><use xlink:href="#inst.svg-b" transform="translate(-1117 -25)"/><use xlink:href="#inst.svg-c" transform="translate(-1117 -25)"/></symbol>
<symbol id="icon-svg-mail-logo" viewBox="0 0 25 25"><use xlink:href="#mail-logo.svg-a" transform="translate(-1197 -25)"/></symbol>
<symbol id="icon-svg-tw" viewBox="0 0 15 13"><use xlink:href="#tw.svg-a" transform="translate(-710 -2195)"/></symbol>
<symbol id="icon-svg-tweeter" viewBox="0 0 144.083 144"><path d="M72.04 14.165c-31.94 0-57.833 25.894-57.833 57.834 0 31.939 25.893 57.836 57.833 57.836 31.941 0 57.835-25.896 57.835-57.836 0-31.94-25.894-57.834-57.835-57.834zm28.232 43.466s1.375 6.815-3.559 18.787c-4.936 11.972-17.15 23.297-33.974 24.349-16.825 1.051-25.887-6.391-25.887-6.391 12.62.971 18.201-4.206 21.194-5.905-11.729-1.537-13.428-10.354-13.428-10.354 1.132.486 4.61.324 6.471-.161-11.485-2.831-11.728-14.398-11.728-14.398s4.286 2.184 6.713 1.779c-11.083-8.413-4.61-19.414-4.61-19.414C56.105 61.94 71.635 61.05 71.635 61.05l.07.105a14.51 14.51 0 0 1-.434-3.523c0-8.008 6.492-14.499 14.5-14.499 4.23 0 8.037 1.813 10.688 4.703l.092-.052c5.176-.324 8.979-3.074 8.979-3.074-1.576 4.604-4.924 6.749-6.322 7.471l.051.128c1.809-.438 6.662-1.625 7.971-2.017-2.833 5.176-6.958 7.339-6.958 7.339z"/></symbol>
<symbol id="icon-svg-vk" viewBox="0 0 22 13"><use xlink:href="#vk.svg-a" transform="translate(-1057 -48)"/></symbol>
<symbol id="icon-svg-h1" viewBox="0 0 925 243"><text dominant-baseline="text-before-edge" font-family="Helvetica, Arial, sans-serif" transform="translate(28 65)" fill="#ec5a4f" font-size="150"><tspan letter-spacing="3.75">&#x41C;&#x410;&#x41D;&#x423;&#x41A;&#x42F;&#x41D;</tspan></text><text dominant-baseline="text-before-edge" font-family="Helvetica, Arial, sans-serif" transform="translate(146 26)" fill="#ec5a4f" font-size="48"><tspan letter-spacing="1.33">&#x410;&#x440;&#x43C;&#x435;&#x43D;</tspan></text></symbol>
<symbol id="icon-svg-link-arrow" viewBox="0 0 19 18"><use fill="#ec5a4f" xlink:href="#link-arrow.svg-a" transform="translate(-438 -801)"/></symbol>
<symbol id="icon-svg-vk" viewBox="0 0 22 13"><use fill="#fff" xlink:href="#vk.svg-a" transform="translate(-1057 -48)"/></symbol>
</svg>