<svg xmlns="http://www.w3.org/2000/svg" xmlns:xlink="http://www.w3.org/1999/xlink" width="18" height="15" viewBox="0 0 18 15"><defs><path id="ndsaa" d="M921.28 5759.62l-4.7 3.47a29.24 29.24 0 0 0-.97.73l-.52.34c-.2.13-.4.23-.58.3-.18.06-.35.09-.5.09h-.02a1.5 1.5 0 0 1-.5-.1 2.96 2.96 0 0 1-.58-.29 10.56 10.56 0 0 1-1.06-.75l-.43-.32a469 469 0 0 0-4.7-3.47c-.4-.3-.8-.7-1.17-1.23-.37-.52-.55-1-.55-1.45 0-.55.14-1.02.42-1.39a1.4 1.4 0 0 1 1.19-.55h14.78c.44 0 .82.17 1.13.5.32.34.48.74.48 1.2 0 .57-.16 1.1-.5 1.61-.32.51-.73.95-1.22 1.31zm1.25 9.87c-.32.34-.7.5-1.14.5h-14.78a1.5 1.5 0 0 1-1.14-.5 1.7 1.7 0 0 1-.47-1.2v-8.45c.3.35.63.65 1.01.92a199.46 199.46 0 0 1 5.93 4.37c.23.17.55.34.95.52.39.17.76.26 1.1.26h.02c.34 0 .71-.1 1.1-.26.4-.18.72-.35.95-.52a208.85 208.85 0 0 1 5.93-4.37c.39-.27.72-.58 1.01-.92v8.45c0 .47-.16.87-.47 1.2z"/></defs><g><g transform="translate(-905 -5755)"><use fill="#9b9b9b" xlink:href="#ndsaa"/></g></g></svg>