<svg xmlns="http://www.w3.org/2000/svg" xmlns:xlink="http://www.w3.org/1999/xlink" width="100" height="26" viewBox="0 0 100 26"><defs><path id="a" d="M231.2 5453.24c-.65 0-1.09.13-1.09.13v1.11h.15c.35.01.5.1.5.46v4.47h1.77v-4.86c0-.9-.43-1.3-1.34-1.3zm-.6-1.8c0 .47.28.91.94.91.67 0 .95-.44.95-.92 0-.48-.27-.9-.95-.9-.67 0-.94.42-.94.9zm15.14.35l-1.74.2v1.38h-.8v1.35h.8v2.62c0 1.46.64 2.19 2.03 2.19.61 0 1-.13 1-.13v-1.27s-.21.04-.46.04c-.59 0-.83-.27-.83-.86v-2.6h1.31v-1.34h-1.31zm5.44 5.94s-.35.5-1.1.5c-.43 0-.72-.23-.72-.65 0-.5.33-.77 1.19-.8l.63-.02zm2.28.58c-.35 0-.54-.1-.54-.47v-2.34c0-1.56-.81-2.26-2.76-2.26-1.14 0-2.02.32-2.02.32v1.27s.88-.28 1.8-.28c.95 0 1.24.35 1.24 1.06v.14l-1.07.02c-1.53.03-2.47.73-2.47 1.94 0 1.13.75 1.83 1.96 1.83 1.04 0 1.61-.63 1.85-.94.14.67.5.94 1.26.94.51 0 .87-.13.87-.13v-1.1zm3.3-.09c-.4 0-.55-.16-.55-.71v-5.92c0-.84-.44-1.24-1.35-1.24-.6 0-1.03.14-1.03.14v1.1h.17c.3.02.45.12.45.46v5.73c0 1.13.49 1.75 1.56 1.75.57 0 .9-.13.9-.13v-1.18zm-15.8-4.98c-.65 0-1.08.13-1.08.13v1.11h.14c.35.01.5.1.5.46v4.47h1.77v-4.86c0-.9-.43-1.3-1.34-1.3zm-4.76 3.1c-.58 0-.97-.4-.97-1.03 0-.6.34-1.02.97-1.02.59 0 .95.4.95 1.02s-.4 1.02-.95 1.02zm.16 3.1c.83.04 1.34.16 1.34.71 0 .5-.56.83-1.34.83-.97 0-1.41-.37-1.41-.89a.8.8 0 0 1 .43-.73c.3.04.65.05.98.08zm3-5.03v-1.1l-1.85.17c-.37-.15-.8-.24-1.3-.24-1.68 0-2.58.97-2.58 2.08 0 .75.38 1.37 1.05 1.72-.39.19-.76.57-.76 1.09 0 .44.2.75.51.95-.47.2-.93.64-.93 1.3 0 .96.85 1.73 2.76 1.73 1.68 0 3.01-.84 3.01-2.2 0-1-.63-1.4-1.44-1.62a6.18 6.18 0 0 0-1.37-.2c-.66-.03-1.05-.12-1.05-.43 0-.15.1-.26.21-.35.2.04.4.06.6.06 1.51 0 2.55-.87 2.55-2.04 0-.31-.07-.64-.24-.92zm1-2.97c0 .47.28.91.94.91.67 0 .96-.44.96-.92 0-.48-.28-.9-.96-.9-.67 0-.94.42-.94.9zm-15.02 6.37h-.76v-5.19h.76c1.37 0 2.2.9 2.2 2.6 0 1.7-.83 2.6-2.2 2.6zm-.08-6.77h-2.45v8.36h2.45c2.76 0 4.12-1.72 4.12-4.18 0-2.47-1.36-4.18-4.12-4.18zm-29.69 2.2c-1.16 0-1.73.9-1.73.9-.3-.56-.85-.9-1.71-.9-.81 0-1.42.41-1.73.94-.1-.65-.49-.94-1.24-.94-.54 0-.9.13-.9.13v1.11h.16c.33.01.5.1.5.46v4.47h1.74v-4.23s.35-.45.93-.45c.63 0 .82.42.82 1v3.68h1.74v-3.64c0-.18-.01-.35-.04-.52 0 0 .3-.52.96-.52.62 0 .82.42.82 1v3.68h1.75v-3.9c0-1.34-.67-2.27-2.07-2.27zm-13.15 6.16h5.07v-1.55h-3.3v-1.94h2.7v-1.5h-2.7v-1.82h3.3v-1.55h-5.07zm24.32-6.16c-.64 0-1.08.13-1.08.13v1.11h.15c.35.01.5.1.5.46v4.47h1.76v-4.86c0-.9-.43-1.3-1.33-1.3zm1.3-1.81c0-.48-.27-.9-.95-.9-.67 0-.94.42-.94.9 0 .48.28.92.94.92.67 0 .95-.44.95-.92zm3.13 2.75c-.15-.74-.6-.94-1.26-.94-.54 0-.89.13-.89.13v1.11h.1c.38 0 .55.1.55.46v4.47h1.75v-4.14c.19-.27.59-.53 1.16-.53.4 0 .68.1.68.1v-1.47s-.17-.13-.6-.13a1.8 1.8 0 0 0-1.49.94zm-9.23 3.98c-.56 0-.86-.26-1-.34v-2.58s.3-.54 1.02-.54c.85 0 1.2.65 1.2 1.67 0 1.13-.46 1.8-1.22 1.8zm.54-4.92c-1.06 0-1.65.66-1.8.94-.1-.65-.5-.94-1.25-.94-.54 0-.89.13-.89.13v1.11h.1c.37 0 .55.08.55.46v7.07h1.75v-2.96c.31.25.77.48 1.44.48 1.78 0 2.58-1.48 2.58-3.24 0-1.66-.65-3.05-2.48-3.05zm12.96 2.57c.08-.9.46-1.32 1.12-1.32.65 0 1 .45.99 1.32zm3.71.11c0-1.3-.63-2.68-2.58-2.68-1.8 0-2.88 1.23-2.88 3.23 0 1.87 1.12 3.07 3.17 3.07 1.25 0 2.02-.36 2.02-.36v-1.23s-.78.3-1.68.3c-1.08 0-1.68-.46-1.77-1.4h3.68s.04-.27.04-.93zm-55.8 3.72l1.44-.58-.9-2.12h2.48v2.12h1.55v-2.12h2.47l-.89 2.12 1.43.58.9-2.1 1.87 1.86v-8.38l-4.09 4.07-2.46-5.84-2.47 5.84-4.09-4.07v8.38l1.88-1.87z"/><path id="b" d="M177.24 5444.09a10.09 10.09 0 0 1-10.1 0 10.09 10.09 0 0 1-10.1 0v14.95c0 6.75 10.1 10.28 10.1 10.28s10.1-3.53 10.1-10.28zm-10.1 1.99a11.93 11.93 0 0 0 8.33.66v12.3c0 2.16-1.42 4.24-4.22 6.17a22.9 22.9 0 0 1-4.1 2.2 22.9 22.9 0 0 1-4.11-2.2c-2.8-1.93-4.23-4.01-4.23-6.18v-12.29a11.93 11.93 0 0 0 8.33-.66z"/></defs><use fill="#003556" xlink:href="#a" transform="translate(-157 -5444)"/><use fill="#fc5252" xlink:href="#b" transform="translate(-157 -5444)"/></svg>