<?xml version="1.0" encoding="utf-8"?>
<!-- Generator: Adobe Illustrator 21.1.0, SVG Export Plug-In . SVG Version: 6.00 Build 0)  -->
<svg version="1.1" id="Слой_1" xmlns="http://www.w3.org/2000/svg" xmlns:xlink="http://www.w3.org/1999/xlink" x="0px" y="0px"
	 viewBox="0 0 32 32" style="enable-background:new 0 0 32 32;" xml:space="preserve">
<style type="text/css">
	.st0{display:none;fill:url(#_x38_srnb_1_);}
	.st1{fill:#2EC1FF;}
	.st2{fill:#FFFFFF;fill-opacity:0;stroke:#2EC1FF;stroke-width:0.5;stroke-miterlimit:50;}
</style>
<linearGradient id="_x38_srnb_1_" gradientUnits="userSpaceOnUse" x1="165.4842" y1="-2579.1624" x2="196.8342" y2="-2611.1624" gradientTransform="matrix(1 0 0 -1 -165 -2579)">
	<stop  offset="0" style="stop-color:#432091"/>
	<stop  offset="1" style="stop-color:#C3396A"/>
</linearGradient>
<path id="_x38_srnb" class="st0" d="M0,16C0,7.163,7.163,0,16,0s16,7.163,16,16s-7.163,16-16,16S0,24.837,0,16z"/>
<g transform="translate(-165 -2613)">
	<g>
		<path id="_x38_srne" class="st1" d="M188.08,2629.97l0.02-0.1c0.04-0.27,0.05-0.79-0.32-1.3c-0.23-0.3-0.6-0.38-0.67-0.39
			l-0.09-0.02v-0.04h-0.12v-0.17h-0.06v-0.49l-0.03-0.07c-0.026-0.064-0.06-0.124-0.1-0.18c-0.06-0.09-0.1-0.1-0.1-0.1l-0.06-0.01
			h-0.07c0,0-0.04,0.02-0.1,0.1c-0.042,0.062-0.076,0.129-0.1,0.2l-0.03,0.06v0.49h-0.06v0.17h-0.12v0.04l-0.1,0.02
			c-0.07,0.01-0.43,0.08-0.66,0.39c-0.15,0.2-0.25,0.43-0.3,0.68l-0.02,0.12l-1.31-0.51h-0.1v-1.02l-0.06-0.02v-0.06
			c-0.012-0.091-0.039-0.178-0.08-0.26c-0.022-0.04-0.049-0.077-0.08-0.11c-0.061-0.062-0.143-0.098-0.23-0.1l-0.11-0.01v-0.44
			l-0.11-0.2l-0.12,0.2v0.44h-0.1c-0.09-0.001-0.177,0.035-0.24,0.1c-0.032,0.036-0.059,0.077-0.08,0.12
			c-0.041,0.082-0.068,0.169-0.08,0.26v0.06l-0.06,0.02l0.01,0.07v0.95h-2.05v-0.72h-0.39v-2.64h0.02l-0.02-0.02
			c-0.1-0.06-0.18-0.13-0.22-0.43c-0.03-0.26-0.2-0.3-0.35-0.31l-0.1-0.01v-0.82c0,0,0-0.11-0.06-0.37
			c-0.03-0.15-0.08-0.2-0.09-0.21l-0.07-0.01l-0.16-3.63l-0.15,3.63h-0.07c-0.02,0.02-0.07,0.07-0.1,0.22
			c-0.05,0.26-0.05,0.37-0.05,0.37v0.82h-0.1c-0.16,0.02-0.32,0.06-0.36,0.32c-0.04,0.3-0.11,0.37-0.21,0.43l-0.02,0.01h0.02v2.65
			h-0.4v0.94l-0.82,0.36l-0.06-0.04c-0.332-0.189-0.708-0.286-1.09-0.28c-0.69,0-1.33,0.31-1.63,0.8l-0.03,0.05h-4.56
			c-0.07,0-0.12-0.04-0.12-0.1c0-0.04,0.05-0.08,0.12-0.08h4.42c0.427-0.559,1.097-0.879,1.8-0.86c0.42,0,0.82,0.1,1.17,0.29
			l0.57-0.25v-1.02h0.39v-2.27c-0.15-0.02-0.23-0.11-0.24-0.19c-0.02-0.1,0.05-0.21,0.17-0.24c0.1-0.02,0.16,0.02,0.18,0.04
			l0.02,0.02c0.03-0.03,0.06-0.1,0.09-0.28c0.03-0.26,0.19-0.41,0.46-0.46v-0.66c0,0,0-0.12,0.05-0.4c0.03-0.18,0.1-0.27,0.17-0.32
			l0.21-5.15c-0.07-0.04-0.11-0.1-0.11-0.17c0-0.08,0.05-0.15,0.14-0.19V2617h0.29v0.68c0.08,0.04,0.13,0.11,0.13,0.19
			c0,0.07-0.04,0.14-0.11,0.18l0.22,5.14c0.06,0.05,0.13,0.14,0.17,0.32c0.05,0.28,0.05,0.4,0.05,0.4v0.66
			c0.27,0.05,0.42,0.2,0.46,0.46c0.02,0.18,0.05,0.25,0.08,0.28l0.02-0.02c0.03-0.02,0.08-0.06,0.19-0.04
			c0.11,0.03,0.19,0.13,0.17,0.24c-0.02,0.08-0.09,0.17-0.24,0.19v2.27h0.38v0.72H182v-0.75l-0.01-0.08v-0.01
			c0-0.03,0.01-0.08,0.07-0.12c0.01-0.12,0.08-0.26,0.1-0.28c0.076-0.161,0.225-0.276,0.4-0.31v-0.32l0.04-0.08
			c-0.07-0.04-0.1-0.1-0.1-0.17c0.01-0.16,0.15-0.2,0.22-0.2l0.03-0.02c0,0,0.02-0.01,0.03-0.08c-0.036-0.025-0.058-0.066-0.06-0.11
			c0-0.04,0.02-0.08,0.06-0.1v-0.03h-0.12v-0.2h0.12v-0.1h0.26v0.1h0.11v0.2h-0.11v0.02c0.03,0.03,0.06,0.07,0.06,0.1
			c0,0.05-0.03,0.1-0.07,0.12c0.01,0.07,0.03,0.08,0.03,0.08l0.04,0.01c0.06,0.02,0.2,0.05,0.2,0.21c0.01,0.07-0.02,0.13-0.1,0.17
			l0.06,0.08v0.31c0.15,0.04,0.23,0.12,0.28,0.16c0.07,0.06,0.11,0.15,0.12,0.16c0,0.02,0.08,0.16,0.1,0.28
			c0.05,0.04,0.06,0.09,0.06,0.12l-0.01,0.09v0.78l1,0.4c0.06-0.22,0.16-0.43,0.3-0.62c0.22-0.3,0.55-0.42,0.72-0.46v-0.09h0.13
			v-0.16h0.05v-0.23h-0.04v-0.26h0.11c0.02-0.04,0.05-0.1,0.1-0.16c0.03-0.06,0.07-0.1,0.1-0.13v-0.16
			c-0.027-0.026-0.042-0.063-0.04-0.1c0-0.1,0.07-0.15,0.12-0.17l0.03-0.03l0.02-0.04c-0.035-0.022-0.057-0.059-0.06-0.1
			c0-0.04,0.03-0.08,0.06-0.1v-0.03h-0.11v-0.2h0.11v-0.1h0.26v0.1h0.12v0.2h-0.12v0.02c0.04,0.03,0.06,0.07,0.06,0.1
			c0,0.05-0.02,0.09-0.05,0.11l0.02,0.04l0.03,0.03c0.05,0.02,0.12,0.07,0.12,0.18c0,0.03-0.01,0.07-0.04,0.1v0.15
			c0.03,0.03,0.07,0.07,0.1,0.13l0.1,0.16h0.1v0.26h-0.03v0.23h0.05v0.16h0.13v0.09c0.17,0.04,0.5,0.16,0.72,0.46
			c0.37,0.5,0.4,1,0.37,1.3h4.53c0.07,0,0.12,0.05,0.12,0.1s-0.05,0.1-0.12,0.1L188.08,2629.97z M186.48,2626.75l0.06,0.01
			l0.05-0.01h0.01l-0.02-0.04c-0.014-0.013-0.027-0.026-0.04-0.04c-0.013,0.014-0.026,0.027-0.04,0.04l-0.02,0.03V2626.75z
			 M182.74,2626.56l0.04,0.02l0.12,0.02l0.12-0.02c0.03,0,0.04-0.02,0.04-0.02v-0.03l-0.04-0.01c-0.043-0.009-0.084-0.026-0.12-0.05
			c-0.037,0.024-0.077,0.041-0.12,0.05l-0.03,0.01L182.74,2626.56z M178.76,2617.84c-0.03,0-0.05,0.02-0.05,0.05
			c0,0.02,0.02,0.04,0.04,0.04h0.03c0.02,0,0.04-0.02,0.04-0.04c0-0.03-0.02-0.05-0.05-0.05H178.76z"/>
		<path id="_x38_srne_1_" class="st2" d="M188.08,2629.97l0.02-0.1c0.04-0.27,0.05-0.79-0.32-1.3c-0.23-0.3-0.6-0.38-0.67-0.39
			l-0.09-0.02v-0.04h-0.12v-0.17h-0.06v-0.49l-0.03-0.07c-0.026-0.064-0.06-0.124-0.1-0.18c-0.06-0.09-0.1-0.1-0.1-0.1l-0.06-0.01
			h-0.07c0,0-0.04,0.02-0.1,0.1c-0.042,0.062-0.076,0.129-0.1,0.2l-0.03,0.06v0.49h-0.06v0.17h-0.12v0.04l-0.1,0.02
			c-0.07,0.01-0.43,0.08-0.66,0.39c-0.15,0.2-0.25,0.43-0.3,0.68l-0.02,0.12l-1.31-0.51h-0.1v-1.02l-0.06-0.02v-0.06
			c-0.012-0.091-0.039-0.178-0.08-0.26c-0.022-0.04-0.049-0.077-0.08-0.11c-0.061-0.062-0.143-0.098-0.23-0.1l-0.11-0.01v-0.44
			l-0.11-0.2l-0.12,0.2v0.44h-0.1c-0.09-0.001-0.177,0.035-0.24,0.1c-0.032,0.036-0.059,0.077-0.08,0.12
			c-0.041,0.082-0.068,0.169-0.08,0.26v0.06l-0.06,0.02l0.01,0.07v0.95h-2.05v-0.72h-0.39v-2.64h0.02l-0.02-0.02
			c-0.1-0.06-0.18-0.13-0.22-0.43c-0.03-0.26-0.2-0.3-0.35-0.31l-0.1-0.01v-0.82c0,0,0-0.11-0.06-0.37
			c-0.03-0.15-0.08-0.2-0.09-0.21l-0.07-0.01l-0.16-3.63l-0.15,3.63h-0.07c-0.02,0.02-0.07,0.07-0.1,0.22
			c-0.05,0.26-0.05,0.37-0.05,0.37v0.82h-0.1c-0.16,0.02-0.32,0.06-0.36,0.32c-0.04,0.3-0.11,0.37-0.21,0.43l-0.02,0.01h0.02v2.65
			h-0.4v0.94l-0.82,0.36l-0.06-0.04c-0.332-0.189-0.708-0.286-1.09-0.28c-0.69,0-1.33,0.31-1.63,0.8l-0.03,0.05h-4.56
			c-0.07,0-0.12-0.04-0.12-0.1c0-0.04,0.05-0.08,0.12-0.08h4.42c0.427-0.559,1.097-0.879,1.8-0.86c0.42,0,0.82,0.1,1.17,0.29
			l0.57-0.25v-1.02h0.39v-2.27c-0.15-0.02-0.23-0.11-0.24-0.19c-0.02-0.1,0.05-0.21,0.17-0.24c0.1-0.02,0.16,0.02,0.18,0.04
			l0.02,0.02c0.03-0.03,0.06-0.1,0.09-0.28c0.03-0.26,0.19-0.41,0.46-0.46v-0.66c0,0,0-0.12,0.05-0.4c0.03-0.18,0.1-0.27,0.17-0.32
			l0.21-5.15c-0.07-0.04-0.11-0.1-0.11-0.17c0-0.08,0.05-0.15,0.14-0.19V2617h0.29v0.68c0.08,0.04,0.13,0.11,0.13,0.19
			c0,0.07-0.04,0.14-0.11,0.18l0.22,5.14c0.06,0.05,0.13,0.14,0.17,0.32c0.05,0.28,0.05,0.4,0.05,0.4v0.66
			c0.27,0.05,0.42,0.2,0.46,0.46c0.02,0.18,0.05,0.25,0.08,0.28l0.02-0.02c0.03-0.02,0.08-0.06,0.19-0.04
			c0.11,0.03,0.19,0.13,0.17,0.24c-0.02,0.08-0.09,0.17-0.24,0.19v2.27h0.38v0.72H182v-0.75l-0.01-0.08v-0.01
			c0-0.03,0.01-0.08,0.07-0.12c0.01-0.12,0.08-0.26,0.1-0.28c0.076-0.161,0.225-0.276,0.4-0.31v-0.32l0.04-0.08
			c-0.07-0.04-0.1-0.1-0.1-0.17c0.01-0.16,0.15-0.2,0.22-0.2l0.03-0.02c0,0,0.02-0.01,0.03-0.08c-0.036-0.025-0.058-0.066-0.06-0.11
			c0-0.04,0.02-0.08,0.06-0.1v-0.03h-0.12v-0.2h0.12v-0.1h0.26v0.1h0.11v0.2h-0.11v0.02c0.03,0.03,0.06,0.07,0.06,0.1
			c0,0.05-0.03,0.1-0.07,0.12c0.01,0.07,0.03,0.08,0.03,0.08l0.04,0.01c0.06,0.02,0.2,0.05,0.2,0.21c0.01,0.07-0.02,0.13-0.1,0.17
			l0.06,0.08v0.31c0.15,0.04,0.23,0.12,0.28,0.16c0.07,0.06,0.11,0.15,0.12,0.16c0,0.02,0.08,0.16,0.1,0.28
			c0.05,0.04,0.06,0.09,0.06,0.12l-0.01,0.09v0.78l1,0.4c0.06-0.22,0.16-0.43,0.3-0.62c0.22-0.3,0.55-0.42,0.72-0.46v-0.09h0.13
			v-0.16h0.05v-0.23h-0.04v-0.26h0.11c0.02-0.04,0.05-0.1,0.1-0.16c0.03-0.06,0.07-0.1,0.1-0.13v-0.16
			c-0.027-0.026-0.042-0.063-0.04-0.1c0-0.1,0.07-0.15,0.12-0.17l0.03-0.03l0.02-0.04c-0.035-0.022-0.057-0.059-0.06-0.1
			c0-0.04,0.03-0.08,0.06-0.1v-0.03h-0.11v-0.2h0.11v-0.1h0.26v0.1h0.12v0.2h-0.12v0.02c0.04,0.03,0.06,0.07,0.06,0.1
			c0,0.05-0.02,0.09-0.05,0.11l0.02,0.04l0.03,0.03c0.05,0.02,0.12,0.07,0.12,0.18c0,0.03-0.01,0.07-0.04,0.1v0.15
			c0.03,0.03,0.07,0.07,0.1,0.13l0.1,0.16h0.1v0.26h-0.03v0.23h0.05v0.16h0.13v0.09c0.17,0.04,0.5,0.16,0.72,0.46
			c0.37,0.5,0.4,1,0.37,1.3h4.53c0.07,0,0.12,0.05,0.12,0.1s-0.05,0.1-0.12,0.1L188.08,2629.97z M186.48,2626.75l0.06,0.01
			l0.05-0.01h0.01l-0.02-0.04c-0.014-0.013-0.027-0.026-0.04-0.04c-0.013,0.014-0.026,0.027-0.04,0.04l-0.02,0.03V2626.75z
			 M182.74,2626.56l0.04,0.02l0.12,0.02l0.12-0.02c0.03,0,0.04-0.02,0.04-0.02v-0.03l-0.04-0.01c-0.043-0.009-0.084-0.026-0.12-0.05
			c-0.037,0.024-0.077,0.041-0.12,0.05l-0.03,0.01L182.74,2626.56z M178.76,2617.84c-0.03,0-0.05,0.02-0.05,0.05
			c0,0.02,0.02,0.04,0.04,0.04h0.03c0.02,0,0.04-0.02,0.04-0.04c0-0.03-0.02-0.05-0.05-0.05H178.76z"/>
	</g>
	<g>
		<path id="_x38_srnf" class="st1" d="M173.4,2640c-0.09-0.001-0.176-0.037-0.24-0.1c-0.143-0.153-0.196-0.369-0.14-0.57l1.23-5.02
			c0.02-0.1,0.1-0.15,0.18-0.12c0.08,0.03,0.12,0.14,0.1,0.23l-1.23,5.02c-0.03,0.09,0.02,0.14,0.04,0.16
			c0.01,0.01,0.07,0.06,0.13,0l6.63-5.27c0.52-0.437,1.28-0.437,1.8,0l6.63,5.28c0.07,0.05,0.12,0,0.13-0.01
			c0.04-0.043,0.055-0.103,0.04-0.16l-1.23-5.02c-0.02-0.1,0.02-0.2,0.1-0.23c0.07-0.03,0.16,0.03,0.18,0.12l1.23,5.02
			c0.052,0.198-0.001,0.41-0.14,0.56c-0.13,0.13-0.32,0.15-0.46,0.03l-6.64-5.28c-0.429-0.355-1.051-0.355-1.48,0l-6.64,5.28
			c-0.059,0.049-0.133,0.077-0.21,0.08"/>
		<path id="_x38_srnf_1_" class="st2" d="M173.4,2640c-0.09-0.001-0.176-0.037-0.24-0.1c-0.143-0.153-0.196-0.369-0.14-0.57
			l1.23-5.02c0.02-0.1,0.1-0.15,0.18-0.12c0.08,0.03,0.12,0.14,0.1,0.23l-1.23,5.02c-0.03,0.09,0.02,0.14,0.04,0.16
			c0.01,0.01,0.07,0.06,0.13,0l6.63-5.27c0.52-0.437,1.28-0.437,1.8,0l6.63,5.28c0.07,0.05,0.12,0,0.13-0.01
			c0.04-0.043,0.055-0.103,0.04-0.16l-1.23-5.02c-0.02-0.1,0.02-0.2,0.1-0.23c0.07-0.03,0.16,0.03,0.18,0.12l1.23,5.02
			c0.052,0.198-0.001,0.41-0.14,0.56c-0.13,0.13-0.32,0.15-0.46,0.03l-6.64-5.28c-0.429-0.355-1.051-0.355-1.48,0l-6.64,5.28
			c-0.059,0.049-0.133,0.077-0.21,0.08"/>
	</g>
</g>
</svg>
