<?xml version="1.0" standalone="no"?>
<!DOCTYPE svg PUBLIC "-//W3C//DTD SVG 20010904//EN"
 "http://www.w3.org/TR/2001/REC-SVG-20010904/DTD/svg10.dtd">
<svg version="1.0" xmlns="http://www.w3.org/2000/svg"
 width="700.000000pt" height="700.000000pt" viewBox="0 0 700.000000 700.000000"
 preserveAspectRatio="xMidYMid meet">
<metadata>
Created by potrace 1.11, written by Peter Selinger 2001-2013
</metadata>
<g transform="translate(0.000000,700.000000) scale(0.100000,-0.100000)"
fill="#000000" stroke="none">
<path d="M2999 6689 c0 -43 -6 -198 -14 -349 -2 -41 -4 -94 -4 -117 -1 -41 -3
-43 -31 -43 l-30 0 3 -72 c3 -54 -2 -87 -16 -125 -18 -48 -18 -55 -5 -90 9
-21 14 -46 13 -55 -2 -9 -6 -97 -10 -195 -4 -98 -8 -214 -10 -258 -2 -44 -6
-154 -10 -245 -13 -321 -14 -339 -29 -368 -19 -37 -25 -67 -33 -172 -6 -83 -7
-86 -48 -126 -25 -24 -44 -53 -48 -74 -4 -18 -10 -30 -13 -27 -10 10 -60 -20
-78 -47 -9 -14 -16 -37 -16 -50 0 -19 -9 -30 -37 -45 l-38 -19 49 0 c77 0 78
-3 78 -204 0 -254 5 -227 -42 -223 l-40 3 -1 -71 c0 -40 0 -95 1 -123 1 -51 1
-52 -37 -67 -28 -11 -43 -12 -58 -4 -44 23 -159 45 -237 45 -153 0 -275 -48
-380 -150 l-38 -37 -470 1 c-258 0 -482 -3 -497 -6 -16 -4 -35 -18 -44 -34
-14 -25 -14 -31 -1 -59 8 -17 24 -35 36 -41 12 -5 236 -9 544 -9 l522 0 21 33
c30 50 95 101 158 125 43 17 79 22 156 23 95 0 104 -1 173 -35 l73 -35 117 50
117 51 3 93 c2 63 7 92 15 93 7 1 25 2 42 3 l30 1 0 305 c1 265 3 308 17 330
9 14 21 44 28 68 11 41 11 42 55 42 42 0 45 2 45 28 1 238 11 305 42 274 8 -8
12 -58 13 -145 1 -73 5 -138 9 -145 4 -7 18 -12 32 -12 38 0 64 -18 64 -43 0
-13 9 -41 21 -62 20 -38 21 -56 22 -340 l2 -300 35 -2 c19 0 38 -2 43 -2 4 -1
7 -36 7 -78 l0 -78 277 0 278 0 1 115 c1 63 4 123 8 132 4 9 6 21 3 25 -3 5 1
23 8 41 13 30 17 32 68 32 60 0 77 -12 81 -57 2 -15 6 -35 9 -43 4 -8 8 -66 9
-129 l3 -115 36 -1 c20 -1 106 -30 191 -64 86 -33 160 -61 165 -61 5 0 15 28
21 61 14 75 43 135 83 171 38 34 80 48 171 57 11 1 22 63 21 121 -1 30 3 62 8
70 6 11 9 3 10 -25 2 -70 6 -130 9 -132 1 -2 3 -7 4 -12 2 -17 14 -23 53 -28
134 -17 206 -107 207 -258 1 -44 -1 -93 -4 -110 l-5 -30 561 -3 c349 -2 570 1
586 7 14 5 32 23 40 38 21 43 -2 88 -51 100 -20 5 -240 9 -489 8 -249 0 -456
2 -460 5 -4 3 -13 32 -20 65 -25 124 -105 242 -192 282 -22 10 -38 23 -36 29
2 6 -4 18 -15 27 -15 13 -19 30 -19 77 0 57 -1 60 -25 60 -24 0 -34 17 -34 60
0 8 -2 33 -5 55 -3 22 -5 66 -5 98 -1 45 -4 57 -17 57 -8 0 -12 5 -9 10 4 6
-23 10 -75 10 -105 0 -114 -8 -117 -104 -4 -166 -10 -186 -49 -186 -23 0 -24
-2 -24 -70 0 -56 -3 -70 -15 -70 -8 0 -15 -9 -15 -19 0 -11 -9 -22 -19 -26
-42 -13 -104 -69 -142 -128 -22 -34 -41 -62 -42 -62 -1 0 -30 11 -64 23 l-63
23 0 88 c0 104 -26 177 -84 233 -34 33 -35 38 -33 95 1 44 -3 66 -14 80 -12
13 -16 36 -14 86 1 48 -2 67 -11 67 -7 0 -14 6 -16 13 -3 8 -28 12 -79 12 -97
0 -109 -10 -109 -90 0 -41 -6 -73 -20 -100 -14 -26 -18 -49 -14 -65 13 -49 10
-61 -31 -103 -53 -55 -86 -142 -81 -213 2 -28 0 -57 -4 -64 -7 -11 -77 -14
-207 -11 -22 1 -23 5 -23 79 l0 78 -39 -2 c-29 -1 -40 2 -43 15 -2 9 -4 100
-3 202 0 162 3 188 18 203 37 37 42 79 16 127 -10 19 -63 52 -76 47 -4 -2 -11
12 -15 30 -5 18 -28 51 -50 73 -41 39 -42 43 -44 107 -2 87 -11 139 -30 176
-9 17 -18 60 -19 96 -2 36 -6 126 -9 200 -4 74 -9 182 -11 240 -8 214 -15 378
-20 474 -4 63 -1 103 5 112 16 19 15 65 -2 99 -9 20 -14 59 -14 113 l1 82 -31
0 c-18 0 -31 5 -31 13 -1 54 -15 370 -19 442 -5 96 -14 127 -15 54z"/>
<path d="M3380 2438 c-67 -26 -75 -31 -486 -359 -777 -619 -995 -791 -999
-788 -2 2 30 139 71 304 62 254 137 560 149 615 1 8 8 34 14 56 23 85 -11 154
-74 154 -57 0 -77 -33 -113 -182 -18 -73 -53 -216 -78 -318 -25 -102 -47 -196
-50 -210 -2 -14 -9 -36 -14 -50 -4 -14 -16 -61 -26 -105 -10 -44 -19 -84 -20
-90 -2 -5 -17 -66 -33 -135 -26 -106 -29 -131 -20 -165 14 -51 43 -91 79 -110
37 -19 39 -19 50 8 l9 22 6 -22 c12 -38 35 -26 175 85 80 63 81 64 130 102 25
19 47 37 50 40 3 3 93 75 200 160 179 142 534 424 570 453 92 74 364 289 395
313 79 61 158 68 237 21 24 -14 142 -105 263 -202 121 -96 279 -222 350 -278
72 -57 285 -227 475 -378 443 -353 413 -331 463 -336 71 -8 139 56 150 142 4
32 4 32 -72 345 -213 878 -204 842 -233 870 -47 43 -120 13 -133 -55 -4 -19
16 -120 55 -280 34 -137 90 -369 126 -514 35 -145 63 -265 62 -267 -2 -1 -148
113 -324 254 -177 142 -418 333 -535 427 -118 93 -221 175 -229 182 -45 37
-299 238 -320 252 -83 58 -225 75 -320 39z"/>
</g>
</svg>
